<svg width="1730" height="175" viewBox="0 0 1730 175" fill="none" xmlns="http://www.w3.org/2000/svg">
<path d="M0.375 0.15625H126.234V58.5156H32.4844V116.641H94.125V103.516H70.2188V71.6406H126.234V175H0.375V0.15625ZM151.378 0.15625H280.753V58.5156H261.3L279.113 116.641H296.456V175H229.191V116.641H247.003L244.425 107.969H187.472L184.894 116.641H202.706V175H135.441V116.641H152.784L170.597 58.5156H151.378V0.15625ZM202.706 58.5156L197.316 75.8594H234.581L229.191 58.5156H202.706ZM452.381 0.15625H524.1V58.5156H506.522V116.641H524.1V175H456.834V116.641H474.413V58.5156H466.444L430.819 175H398.944L363.319 58.5156H355.35V116.641H372.928V175H305.663V116.641H323.241V58.5156H305.663V0.15625H377.381L414.881 122.734L452.381 0.15625ZM535.65 0.15625H679.088V75.3906H646.978V58.5156H585.338V71.6406H630.338V103.516H585.338V116.641H646.978V99.7656H679.088V175H535.65V116.641H553.228V58.5156H535.65V0.15625ZM751.172 0.15625H877.031V175H751.172V0.15625ZM783.281 58.5156V116.641H844.922V58.5156H783.281ZM986.316 0.15625H1053.58V58.5156H1036V116.641H1053.58V175H981.862L946.237 58.5156H938.269V116.641H955.847V175H888.581V116.641H906.159V58.5156H888.581V0.15625H960.3L995.925 116.641H1003.89V58.5156H986.316V0.15625ZM1125.67 0.15625H1251.53V75.3906H1219.42V58.5156H1157.78V116.641H1219.42V99.7656H1251.53V175H1125.67V0.15625ZM1276.67 0.15625H1406.04V58.5156H1386.59L1404.4 116.641H1421.75V175H1354.48V116.641H1372.29L1369.72 107.969H1312.76L1310.18 116.641H1328V175H1260.73V116.641H1278.07L1295.89 58.5156H1276.67V0.15625ZM1328 58.5156L1322.61 75.8594H1359.87L1354.48 58.5156H1328ZM1430.95 0.15625H1574.39V75.3906H1542.28V58.5156H1480.64V71.6406H1525.64V103.516H1480.64V116.641H1498.22V175H1430.95V116.641H1448.53V58.5156H1430.95V0.15625ZM1585.94 0.15625H1729.38V75.3906H1697.27V58.5156H1635.63V71.6406H1680.63V103.516H1635.63V116.641H1697.27V99.7656H1729.38V175H1585.94V116.641H1603.52V58.5156H1585.94V0.15625Z" fill="#AE3C3C"/>
</svg>
